<svg xmlns="http://www.w3.org/2000/svg" viewBox="0 0 553.22 160.37"><defs><style>.cls-1{fill:#8ccdcc;}.cls-2{fill:#fff;}</style></defs><title>Zonal-logo-MW</title><g id="Layer_2" data-name="Layer 2"><g id="Layer_1-2" data-name="Layer 1"><path class="cls-1" d="M160.6,98.06a25.46,25.46,0,1,1,44.05,17.35l37.7,9.36A62.3,62.3,0,1,0,123.82,95.32l37.68,9.36A25.31,25.31,0,0,1,160.6,98.06Z"/><path class="cls-1" d="M473,37.08V41.2a62.31,62.31,0,1,0,0,113.73v3.73h36.85V37.08Zm-25.45,86.44A25.46,25.46,0,1,1,473,98.06,25.46,25.46,0,0,1,447.53,123.52Z"/><rect class="cls-1" x="516.37" width="36.85" height="158.64"/><path class="cls-1" d="M378.87,98.35h0c0-.1,0-.19,0-.29A62.28,62.28,0,0,0,291.11,41.2V37.08H254.26v90.65l36.85,9.16V98.07h0a25.46,25.46,0,0,1,50.91,0h.07v.3H342v51.19l36.85,9.15Z"/><polygon class="cls-1" points="121.75 36.85 121.76 36.85 121.76 36.84 121.78 36.81 121.76 36.8 121.76 0 0 0 0 36.85 73.14 36.85 40.62 74.65 80.67 84.6 121.75 36.85"/><path class="cls-2" d="M204.65,115.41a25.4,25.4,0,0,1-43.15-10.73l-37.68-9.36c0,.91-.07,1.82-.07,2.74a62.31,62.31,0,0,0,118.6,26.71Z"/><polygon class="cls-2" points="254.26 158.62 291.11 158.62 291.11 136.89 254.26 127.73 254.26 158.62"/><polygon class="cls-2" points="342.02 149.54 342.02 158.69 378.87 158.69 378.87 158.69 342.02 149.54"/><polygon class="cls-2" points="80.67 84.6 40.62 74.65 0.06 121.79 0.08 121.81 0 121.81 0 158.66 121.76 158.66 121.76 121.81 48.65 121.81 80.67 84.6"/></g></g></svg>